<svg width="1544" height="560" viewBox="0 0 1544 560" fill="none" xmlns="http://www.w3.org/2000/svg">
<path d="M537.966 284.439C535.783 405.124 423.727 493.214 305.142 487.758C191.306 478.73 105.469 397.644 102.091 285.884C98.4181 164.383 206.94 67.4961 328.41 72.1617C444.809 76.6325 540.072 167.976 537.966 284.439Z" fill="#F5FDE8"/>
<path d="M346.954 263.256C343.122 262.449 370.715 199.81 408.057 188.576C436.086 180.144 475.735 196.359 477.378 200.1C479.021 203.842 462.183 228.301 415.826 251.882C369.469 275.462 343.115 272.864 346.954 263.256Z" fill="#BBD491"/>
<path d="M167.871 315.522C177.14 303.075 205.872 267.37 233.929 262.305C262.235 257.195 299.55 282.473 311.259 291.087C313.088 292.432 312.912 295.101 310.932 296.211C301.345 301.584 275.692 314.763 246.601 319.789C217.255 324.859 182.903 321.873 170.021 320.432C167.597 320.161 166.415 317.478 167.871 315.522Z" fill="#BBD491"/>
<path fill-rule="evenodd" clip-rule="evenodd" d="M398.886 465.464C291.893 511.285 160.061 456.515 121.216 347.217C82.3433 237.841 154.729 119.387 265.435 87.3128C373.232 56.0818 497.145 123.141 524.029 229.738C550.913 336.335 492.819 425.235 398.886 465.464ZM267.69 95.6014C363.277 65.319 485.346 122.592 515.665 231.713C543.008 330.125 475.271 420.851 404.216 449.664C395.486 404.271 377.06 360.41 345.823 325.93C345.949 313.518 351.446 288.006 361.871 263.1C384.711 260.722 407.796 251.104 430.772 237.589C458.75 221.131 479.353 198.217 481.21 194.086C481.917 192.513 482.181 190.934 481.978 189.354C481.789 187.879 481.265 186.369 480.224 185.294C471.157 176.949 420.048 167.013 389.297 184.771C362.841 200.047 347.324 227.092 339.022 254.765C338.821 256.534 339.462 258.408 340.544 259.797C343.235 263.251 348.176 263.713 352.225 263.665C353.248 263.653 354.271 263.625 355.294 263.582C348.734 278.667 343.332 294.185 338.536 307.961C337.57 310.738 336.628 313.444 335.706 316.061C324.06 306.653 311.775 298.631 299.509 292.203C303.207 289.383 306.439 286.203 309.134 282.619C309.433 282.222 309.616 281.734 309.619 281.235C309.622 280.617 309.355 280.088 308.965 279.63C290.748 261.321 268.757 248.03 238.705 248.238C204.58 248.474 176.524 273.56 161.878 289.876C159.895 292.072 159.924 294.721 162.063 296.769C164.007 298.63 167.084 298.57 168.953 296.642C169.45 296.092 169.946 295.542 170.443 294.992C189.395 273.983 208.258 253.072 243.561 255.548C266.206 257.136 282.44 267.399 296.336 280.923C294.49 283.34 292.288 285.499 289.768 287.429C258.598 273.213 228.689 269.74 210.991 280.461C209.035 281.402 207.954 284.177 208.622 285.912C209.319 287.721 211.494 288.637 213.813 288.86C215.314 289.004 217.161 287.958 219.464 286.654C222.407 284.988 226.094 282.901 230.749 282.341C246.84 280.128 264.828 283.671 282.982 291.708C264.736 301.217 235.87 303.124 204.164 303.363C190.283 303.392 178.582 303.143 168.832 302.935H168.832C151.427 302.564 140.243 302.325 133.985 304.046C131.856 304.608 130.806 306.471 130.735 308.357C130.647 310.723 132.102 313.527 134.911 313.537C141.68 313.56 148.658 313.639 155.755 313.72C205.596 314.285 261.381 314.919 292.954 296.564C299.012 299.78 305.052 303.47 311.012 307.589C349.987 335.884 376.171 383.92 384.812 429.513C386.639 439.154 387.506 448.482 387.354 457.221C304.302 497.286 165.798 448.74 127.767 344.314C89.6314 239.598 160.504 126.656 267.69 95.6014ZM352.193 254.036C354.762 254.003 357.291 253.902 359.789 253.731C371.666 228.973 387.127 206.764 408.763 197.294C419.372 192.65 433.384 196.065 443.641 200.418C446.107 201.465 447.258 204.312 446.21 206.778C445.133 209.314 441.883 210.567 439.473 209.12C431.654 203.381 423.559 199.076 413.849 201.258C393.957 207.908 377.736 229.357 366.347 253.11C385.197 250.827 402.711 244.314 423.05 232.905C451.281 217.07 466.473 204.421 471.754 191.466C448.66 177.755 425.086 175.915 398.886 187.067C371.847 198.576 358.471 225.885 349.56 245.665C348.89 247.739 347.684 251.711 349.957 253.316C350.437 253.655 351.147 253.93 352.193 254.036Z" fill="#183F18"/>
<path d="M674.231 246.042C665.251 246.042 657.027 243.866 649.56 239.512L649.985 222.193H661.328L663.739 236.247C665.44 236.91 667.142 237.43 668.843 237.809C670.545 238.093 672.388 238.235 674.373 238.235C678.438 238.235 681.557 237.572 683.732 236.247C685.906 234.828 686.993 232.698 686.993 229.859C686.993 227.683 686.189 225.79 684.582 224.181C682.975 222.572 679.809 221.105 675.082 219.78L667.425 217.509C661.943 215.9 657.689 213.297 654.664 209.701C651.734 206.105 650.269 201.657 650.269 196.357C650.269 189.827 652.821 184.338 657.925 179.89C663.03 175.347 670.356 173.076 679.903 173.076C684.062 173.076 687.891 173.597 691.388 174.638C694.98 175.584 698.62 177.004 702.306 178.896L701.314 194.37H689.97L687.135 182.161C685.149 181.404 682.55 181.026 679.336 181.026C676.122 181.026 673.523 181.688 671.537 183.013C669.647 184.338 668.702 186.326 668.702 188.975C668.702 190.868 669.458 192.572 670.97 194.086C672.483 195.505 675.697 196.972 680.612 198.487L687.56 200.474C694.271 202.461 699.092 205.301 702.023 208.991C704.953 212.682 706.418 217.178 706.418 222.477C706.418 229.954 703.535 235.774 697.769 239.938C692.097 244.008 684.251 246.042 674.231 246.042Z" fill="#0F2811"/>
<path d="M767.707 245.9C759.483 245.9 754.284 242.493 752.109 235.679C749.085 238.897 746.154 241.452 743.318 243.345C740.577 245.143 736.749 246.042 731.833 246.042C726.351 246.042 721.861 244.481 718.363 241.358C714.96 238.235 713.259 233.739 713.259 227.872C713.259 224.465 714.015 221.389 715.527 218.645C717.04 215.9 719.781 213.345 723.751 210.979C727.721 208.613 733.346 206.389 740.624 204.307C742.042 203.834 743.697 203.36 745.587 202.887C747.478 202.414 749.415 201.941 751.401 201.468V196.783C751.401 190.442 750.597 186.136 748.99 183.865C747.478 181.594 744.453 180.458 739.915 180.458C739.254 180.458 738.639 180.458 738.072 180.458C737.505 180.458 736.843 180.505 736.087 180.6L735.378 186.846C735.284 191.483 734.196 194.843 732.117 196.925C730.132 199.007 727.769 200.048 725.027 200.048C719.828 200.048 716.662 197.682 715.527 192.95C715.905 187.083 718.883 182.303 724.46 178.612C730.037 174.922 737.93 173.076 748.139 173.076C757.214 173.076 763.689 175.158 767.565 179.322C771.535 183.486 773.52 190.348 773.52 199.906V231.705C773.52 234.449 774.56 235.821 776.639 235.821C777.396 235.821 778.105 235.632 778.766 235.254C779.428 234.78 780.137 233.929 780.893 232.698L784.722 235.254C783.02 239.039 780.799 241.784 778.057 243.487C775.411 245.096 771.96 245.9 767.707 245.9ZM734.244 224.181C734.244 227.683 735.047 230.285 736.654 231.989C738.356 233.692 740.388 234.544 742.751 234.544C743.791 234.544 744.878 234.307 746.012 233.834C747.147 233.361 748.943 232.272 751.401 230.569V207.572C750.172 207.95 748.943 208.376 747.714 208.849C746.58 209.228 745.587 209.607 744.736 209.985C741.522 211.31 738.97 213.203 737.08 215.663C735.189 218.029 734.244 220.869 734.244 224.181Z" fill="#0F2811"/>
<path d="M785.532 276.137V269.465L793.473 267.762C793.567 263.314 793.615 259.15 793.615 255.27C793.709 251.484 793.756 247.841 793.756 244.339V205.868C793.756 201.988 793.709 199.007 793.615 196.925C793.615 194.748 793.52 192.24 793.331 189.401L784.54 188.124V182.587L812.331 173.076L814.742 174.496L815.309 182.445C821.264 176.199 828.259 173.076 836.294 173.076C841.493 173.076 846.172 174.448 850.331 177.193C854.491 179.937 857.799 184.007 860.257 189.401C862.809 194.796 864.085 201.42 864.085 209.275C864.085 216.846 862.667 223.424 859.831 229.007C856.996 234.496 853.262 238.708 848.63 241.642C844.092 244.575 839.13 246.042 833.742 246.042C826.463 246.042 820.508 243.582 815.876 238.661V244.197C815.876 247.699 815.876 251.342 815.876 255.128C815.97 258.913 816.065 262.983 816.159 267.336L825.234 269.465V276.137H785.532ZM825.943 185.426C824.147 185.426 822.446 185.805 820.839 186.562C819.326 187.319 817.814 188.266 816.301 189.401V230.569C819.137 232.935 822.209 234.118 825.518 234.118C829.772 234.118 833.222 232.131 835.869 228.156C838.61 224.181 839.981 217.982 839.981 209.559C839.981 201.136 838.657 195.032 836.01 191.247C833.458 187.367 830.102 185.426 825.943 185.426Z" fill="#0F2811"/>
<path d="M871.373 243.913V237.241L879.172 235.538C879.266 231.941 879.313 228.345 879.313 224.749C879.408 221.152 879.455 217.604 879.455 214.102V154.622L870.664 153.202V147.24L900.44 140.852L902.709 142.271L902.142 162.145V214.102C902.142 217.698 902.142 221.294 902.142 224.891C902.236 228.487 902.331 232.083 902.425 235.679L910.224 237.241V243.913H871.373Z" fill="#0F2811"/>
<path d="M917.773 243.913V237.241L925.43 235.538C925.524 232.131 925.572 228.44 925.572 224.465C925.572 220.49 925.572 217.036 925.572 214.102V207.288C925.572 203.408 925.524 200.19 925.43 197.635C925.43 194.985 925.335 192.24 925.146 189.401L916.355 188.124V182.587L946.132 173.076L948.542 174.638L948.117 195.222V214.102C948.117 217.036 948.117 220.537 948.117 224.607C948.117 228.582 948.164 232.32 948.258 235.821L955.348 237.241V243.913H917.773ZM936.632 162.571C933.323 162.571 930.487 161.53 928.124 159.448C925.761 157.272 924.579 154.574 924.579 151.357C924.579 148.044 925.761 145.347 928.124 143.265C930.487 141.088 933.323 140 936.632 140C939.94 140 942.776 141.088 945.139 143.265C947.502 145.347 948.684 148.044 948.684 151.357C948.684 154.574 947.502 157.272 945.139 159.448C942.776 161.53 939.94 162.571 936.632 162.571Z" fill="#0F2811"/>
<path d="M962.353 243.913V237.241L970.01 235.538C970.105 232.131 970.152 228.44 970.152 224.465C970.152 220.49 970.152 217.036 970.152 214.102V205.868C970.152 201.988 970.105 199.007 970.01 196.925C970.01 194.748 969.916 192.24 969.727 189.401L961.077 188.124V182.587L989.01 173.076L991.563 174.638L992.413 184.859C996.1 180.505 999.739 177.477 1003.33 175.773C1007.02 173.975 1010.94 173.076 1015.1 173.076C1021.24 173.076 1026.16 175.111 1029.85 179.18C1033.63 183.25 1035.52 189.354 1035.52 197.493V214.102C1035.52 217.225 1035.52 220.774 1035.52 224.749C1035.52 228.629 1035.57 232.32 1035.66 235.821L1042.75 237.241V243.913H1005.32V237.241L1012.69 235.679C1012.78 232.178 1012.83 228.487 1012.83 224.607C1012.83 220.632 1012.83 217.13 1012.83 214.102V199.196C1012.83 194.654 1012.22 191.483 1010.99 189.685C1009.76 187.792 1007.77 186.846 1005.03 186.846C1001.35 186.846 997.281 188.55 992.839 191.957V214.102C992.839 217.036 992.839 220.537 992.839 224.607C992.839 228.582 992.886 232.32 992.98 235.821L999.645 237.241V243.913H962.353Z" fill="#0F2811"/>
<path d="M1080.5 212.114C1083.8 212.114 1086.26 210.648 1087.87 207.714C1089.57 204.78 1090.42 200.805 1090.42 195.789C1090.42 190.774 1089.57 186.893 1087.87 184.149C1086.26 181.31 1083.9 179.89 1080.78 179.89C1077.57 179.89 1075.16 181.31 1073.55 184.149C1071.94 186.988 1071.14 190.915 1071.14 195.931C1071.14 200.947 1071.89 204.922 1073.41 207.856C1074.92 210.695 1077.28 212.114 1080.5 212.114ZM1061.64 255.695C1061.64 259.86 1063.2 262.888 1066.32 264.781C1069.44 266.768 1074.21 267.762 1080.64 267.762C1087.73 267.762 1093.07 266.721 1096.66 264.639C1100.25 262.557 1102.05 259.954 1102.05 256.831C1102.05 254.749 1101.29 252.856 1099.78 251.153C1098.27 249.544 1095.57 248.74 1091.7 248.74H1076.81C1071.61 248.74 1067.31 248.314 1063.91 247.462C1063.15 248.787 1062.58 250.065 1062.2 251.295C1061.83 252.525 1061.64 253.992 1061.64 255.695ZM1080.64 218.787C1075.72 218.787 1071.42 218.219 1067.73 217.083C1066.6 219.07 1066.03 221.247 1066.03 223.613C1066.03 225.222 1066.65 226.547 1067.88 227.588C1069.11 228.534 1071.23 229.007 1074.26 229.007H1090.85C1098.03 229.007 1103.75 229.907 1108 231.705C1112.26 233.408 1115.28 235.821 1117.08 238.944C1118.97 241.973 1119.91 245.569 1119.91 249.733C1119.91 254.465 1118.35 258.819 1115.23 262.793C1112.12 266.863 1107.44 270.081 1101.2 272.446C1095.05 274.907 1087.44 276.137 1078.37 276.137C1070.52 276.137 1064.38 275.333 1059.94 273.724C1055.49 272.21 1052.37 270.175 1050.58 267.62C1048.78 265.065 1047.88 262.368 1047.88 259.528C1047.88 253.472 1051.81 248.598 1059.65 244.907C1056.72 243.676 1054.6 242.068 1053.27 240.08C1052.04 238.093 1051.43 235.916 1051.43 233.55C1051.43 230.238 1052.37 227.115 1054.26 224.181C1056.25 221.152 1058.99 218.124 1062.49 215.096C1058.61 213.108 1055.73 210.458 1053.84 207.146C1051.95 203.834 1051 200.143 1051 196.073C1051 189.449 1053.41 183.96 1058.23 179.606C1063.15 175.253 1070.62 173.076 1080.64 173.076C1085.74 173.076 1090.18 173.644 1093.97 174.78C1097.75 175.915 1100.82 177.524 1103.18 179.606L1119.06 172.792L1121.33 174.212V185.143H1107.86C1109.56 188.266 1110.41 191.909 1110.41 196.073C1110.41 202.414 1107.96 207.808 1103.04 212.256C1098.22 216.61 1090.75 218.787 1080.64 218.787Z" fill="#0F2811"/>
<path d="M649.276 385.871V379.199L656.933 377.495C657.027 374.088 657.075 370.397 657.075 366.422C657.075 362.448 657.075 358.993 657.075 356.06V347.826C657.075 343.946 657.027 340.965 656.933 338.883C656.933 336.706 656.838 334.198 656.649 331.359L648 330.081V324.545L675.933 315.034L678.485 316.595L679.336 326.816C682.644 322.936 686.095 320.002 689.687 318.015C693.373 316.027 697.296 315.034 701.455 315.034C711.192 315.034 717.478 319.245 720.314 327.668C724.189 322.936 727.923 319.671 731.515 317.873C735.202 315.98 739.078 315.034 743.142 315.034C750.326 315.034 755.573 317.116 758.881 321.28C762.19 325.444 763.844 331.737 763.844 340.16V356.06C763.844 359.088 763.844 362.59 763.844 366.564C763.844 370.539 763.891 374.23 763.986 377.637L771.075 379.199V385.871H734.493V379.199L741.441 377.495C741.535 374.088 741.583 370.445 741.583 366.564C741.583 362.59 741.583 359.088 741.583 356.06V342.29C741.583 336.99 740.968 333.441 739.739 331.643C738.51 329.75 736.431 328.804 733.5 328.804C729.53 328.804 725.56 330.507 721.59 333.914C721.684 334.766 721.732 335.665 721.732 336.611C721.826 337.463 721.874 338.409 721.874 339.451V356.06C721.874 359.183 721.874 362.732 721.874 366.706C721.874 370.587 721.921 374.277 722.015 377.779L728.68 379.199V385.871H692.097V379.199L699.47 377.495C699.565 374.088 699.612 370.445 699.612 366.564C699.612 362.59 699.612 359.088 699.612 356.06V342.432C699.612 337.416 698.998 333.914 697.769 331.927C696.635 329.845 694.508 328.804 691.388 328.804C689.403 328.804 687.418 329.277 685.433 330.223C683.448 331.17 681.557 332.4 679.761 333.914V356.06C679.761 358.993 679.761 362.495 679.761 366.564C679.761 370.539 679.809 374.277 679.903 377.779L686.567 379.199V385.871H649.276Z" fill="#0F2811"/>
<path d="M814.07 388C806.697 388 800.316 386.486 794.928 383.457C789.54 380.334 785.381 376.028 782.451 370.539C779.52 364.956 778.055 358.52 778.055 351.233C778.055 343.946 779.615 337.605 782.734 332.211C785.948 326.816 790.297 322.605 795.779 319.576C801.262 316.548 807.359 315.034 814.07 315.034C820.782 315.034 826.832 316.501 832.22 319.434C837.702 322.368 842.051 326.58 845.264 332.069C848.478 337.463 850.085 343.851 850.085 351.233C850.085 358.615 848.62 365.05 845.69 370.539C842.759 376.028 838.6 380.334 833.212 383.457C827.824 386.486 821.443 388 814.07 388ZM814.07 380.618C818.04 380.618 821.018 378.3 823.003 373.662C824.988 369.025 825.981 361.691 825.981 351.659C825.981 341.533 824.988 334.151 823.003 329.513C821.018 324.876 818.04 322.558 814.07 322.558C810.006 322.558 806.981 324.876 804.996 329.513C803.011 334.151 802.018 341.533 802.018 351.659C802.018 361.691 803.011 369.025 804.996 373.662C806.981 378.3 810.006 380.618 814.07 380.618Z" fill="#0F2811"/>
<path d="M900.222 323.551V317.305H927.021V323.551L918.797 325.113L895.401 386.155H884.625L859.102 324.971L852.155 323.551V317.305H892.423V323.551L883.491 325.397L896.819 361.738L909.155 325.255L900.222 323.551Z" fill="#0F2811"/>
<path d="M963.178 322.416C960.531 322.416 958.073 324.072 955.804 327.384C953.63 330.602 952.401 336.564 952.118 345.271H964.17C967.573 345.271 969.842 344.608 970.976 343.283C972.205 341.864 972.819 339.545 972.819 336.327C972.819 331.596 971.874 328.094 969.984 325.823C968.093 323.551 965.824 322.416 963.178 322.416ZM963.461 388C956.561 388 950.464 386.58 945.17 383.741C939.876 380.808 935.717 376.643 932.692 371.249C929.667 365.76 928.155 359.23 928.155 351.659C928.155 343.709 929.904 337.037 933.401 331.643C936.993 326.154 941.578 322.037 947.155 319.293C952.732 316.453 958.546 315.034 964.596 315.034C970.834 315.034 976.128 316.359 980.476 319.009C984.919 321.658 988.275 325.255 990.543 329.797C992.812 334.245 993.946 339.356 993.946 345.129C993.946 347.873 993.663 350.381 993.096 352.653H952.118C952.59 360.129 954.623 365.665 958.215 369.262C961.901 372.763 966.202 374.514 971.118 374.514C974.994 374.514 978.302 373.804 981.043 372.385C983.785 370.87 986.195 369.025 988.275 366.848L993.237 371.391C990.307 376.975 986.337 381.139 981.327 383.883C976.317 386.628 970.362 388 963.461 388Z" fill="#0F2811"/>
<path d="M1001.96 385.871V379.199L1009.61 377.495C1009.71 374.088 1009.75 370.397 1009.75 366.422C1009.75 362.448 1009.75 358.993 1009.75 356.06V347.826C1009.75 343.946 1009.71 340.965 1009.61 338.883C1009.61 336.706 1009.52 334.198 1009.33 331.359L1000.68 330.081V324.545L1028.61 315.034L1031.16 316.595L1032.02 326.816C1035.32 322.936 1038.77 320.002 1042.37 318.015C1046.05 316.027 1049.98 315.034 1054.13 315.034C1063.87 315.034 1070.16 319.245 1072.99 327.668C1076.87 322.936 1080.6 319.671 1084.19 317.873C1087.88 315.98 1091.76 315.034 1095.82 315.034C1103.01 315.034 1108.25 317.116 1111.56 321.28C1114.87 325.444 1116.52 331.737 1116.52 340.16V356.06C1116.52 359.088 1116.52 362.59 1116.52 366.564C1116.52 370.539 1116.57 374.23 1116.66 377.637L1123.75 379.199V385.871H1087.17V379.199L1094.12 377.495C1094.21 374.088 1094.26 370.445 1094.26 366.564C1094.26 362.59 1094.26 359.088 1094.26 356.06V342.29C1094.26 336.99 1093.65 333.441 1092.42 331.643C1091.19 329.75 1089.11 328.804 1086.18 328.804C1082.21 328.804 1078.24 330.507 1074.27 333.914C1074.36 334.766 1074.41 335.665 1074.41 336.611C1074.51 337.463 1074.55 338.409 1074.55 339.451V356.06C1074.55 359.183 1074.55 362.732 1074.55 366.706C1074.55 370.587 1074.6 374.277 1074.69 377.779L1081.36 379.199V385.871H1044.78V379.199L1052.15 377.495C1052.24 374.088 1052.29 370.445 1052.29 366.564C1052.29 362.59 1052.29 359.088 1052.29 356.06V342.432C1052.29 337.416 1051.68 333.914 1050.45 331.927C1049.31 329.845 1047.19 328.804 1044.07 328.804C1042.08 328.804 1040.1 329.277 1038.11 330.223C1036.13 331.17 1034.24 332.4 1032.44 333.914V356.06C1032.44 358.993 1032.44 362.495 1032.44 366.564C1032.44 370.539 1032.49 374.277 1032.58 377.779L1039.25 379.199V385.871H1001.96Z" fill="#0F2811"/>
<path d="M1165.76 322.416C1163.11 322.416 1160.65 324.072 1158.38 327.384C1156.21 330.602 1154.98 336.564 1154.7 345.271H1166.75C1170.15 345.271 1172.42 344.608 1173.56 343.283C1174.78 341.864 1175.4 339.545 1175.4 336.327C1175.4 331.596 1174.45 328.094 1172.56 325.823C1170.67 323.551 1168.4 322.416 1165.76 322.416ZM1166.04 388C1159.14 388 1153.04 386.58 1147.75 383.741C1142.46 380.808 1138.3 376.643 1135.27 371.249C1132.25 365.76 1130.73 359.23 1130.73 351.659C1130.73 343.709 1132.48 337.037 1135.98 331.643C1139.57 326.154 1144.16 322.037 1149.73 319.293C1155.31 316.453 1161.13 315.034 1167.17 315.034C1173.41 315.034 1178.71 316.359 1183.06 319.009C1187.5 321.658 1190.85 325.255 1193.12 329.797C1195.39 334.245 1196.53 339.356 1196.53 345.129C1196.53 347.873 1196.24 350.381 1195.68 352.653H1154.7C1155.17 360.129 1157.2 365.665 1160.79 369.262C1164.48 372.763 1168.78 374.514 1173.7 374.514C1177.57 374.514 1180.88 373.804 1183.62 372.385C1186.36 370.87 1188.77 369.025 1190.85 366.848L1195.82 371.391C1192.89 376.975 1188.92 381.139 1183.91 383.883C1178.9 386.628 1172.94 388 1166.04 388Z" fill="#0F2811"/>
<path d="M1204.53 385.871V379.199L1212.19 377.495C1212.29 374.088 1212.33 370.397 1212.33 366.422C1212.33 362.448 1212.33 358.993 1212.33 356.06V347.826C1212.33 343.946 1212.29 340.965 1212.19 338.883C1212.19 336.706 1212.1 334.198 1211.91 331.359L1203.26 330.081V324.545L1231.19 315.034L1233.74 316.595L1234.59 326.816C1238.28 322.463 1241.92 319.434 1245.51 317.731C1249.2 315.933 1253.12 315.034 1257.28 315.034C1263.43 315.034 1268.34 317.069 1272.03 321.138C1275.81 325.207 1277.7 331.312 1277.7 339.451V356.06C1277.7 359.183 1277.7 362.732 1277.7 366.706C1277.7 370.587 1277.75 374.277 1277.84 377.779L1284.93 379.199V385.871H1247.5V379.199L1254.87 377.637C1254.97 374.135 1255.01 370.445 1255.01 366.564C1255.01 362.59 1255.01 359.088 1255.01 356.06V341.154C1255.01 336.611 1254.4 333.441 1253.17 331.643C1251.94 329.75 1249.96 328.804 1247.21 328.804C1243.53 328.804 1239.46 330.507 1235.02 333.914V356.06C1235.02 358.993 1235.02 362.495 1235.02 366.564C1235.02 370.539 1235.07 374.277 1235.16 377.779L1241.83 379.199V385.871H1204.53Z" fill="#0F2811"/>
<path d="M1318.16 388C1311.82 388 1306.86 386.486 1303.27 383.457C1299.68 380.334 1297.88 375.271 1297.88 368.268C1297.88 365.807 1297.88 363.536 1297.88 361.454C1297.97 359.277 1298.02 356.817 1298.02 354.072V326.958H1288.81V318.583L1299.3 317.163L1306.39 297.289H1320.85L1320.57 317.305H1335.46V326.958H1320.57V366.706C1320.57 370.019 1321.23 372.479 1322.55 374.088C1323.97 375.602 1325.72 376.359 1327.8 376.359C1330.26 376.359 1332.81 375.318 1335.46 373.236L1339 376.643C1337.11 380.24 1334.46 383.031 1331.06 385.019C1327.75 387.006 1323.45 388 1318.16 388Z" fill="#0F2811"/>
</svg>
