<svg width="1623" height="560" viewBox="0 0 1623 560" fill="none" xmlns="http://www.w3.org/2000/svg">
<path d="M690.483 243.146C680.047 243.146 670.491 240.618 661.813 235.563L662.307 215.451H675.489L678.29 231.771C680.267 232.54 682.244 233.145 684.222 233.584C686.199 233.914 688.341 234.079 690.648 234.079C695.371 234.079 698.996 233.31 701.523 231.771C704.05 230.123 705.313 227.65 705.313 224.353C705.313 221.825 704.379 219.627 702.512 217.758C700.644 215.89 696.964 214.187 691.472 212.648L682.574 210.01C676.203 208.142 671.26 205.12 667.744 200.943C664.339 196.767 662.636 191.602 662.636 185.447C662.636 177.864 665.602 171.489 671.534 166.324C677.466 161.049 685.979 158.411 697.074 158.411C701.907 158.411 706.356 159.015 710.421 160.224C714.595 161.323 718.824 162.972 723.108 165.17L721.955 183.139H708.773L705.478 168.962C703.171 168.082 700.15 167.643 696.415 167.643C692.68 167.643 689.659 168.412 687.352 169.951C685.155 171.489 684.057 173.797 684.057 176.875C684.057 179.073 684.936 181.051 686.693 182.809C688.451 184.458 692.186 186.161 697.898 187.92L705.972 190.228C713.771 192.536 719.374 195.833 722.779 200.119C726.184 204.405 727.887 209.626 727.887 215.78C727.887 224.463 724.536 231.222 717.836 236.057C711.245 240.783 702.127 243.146 690.483 243.146Z" fill="#002903"/>
<path d="M799.109 242.981C789.552 242.981 783.511 239.025 780.984 231.112C777.469 234.848 774.063 237.816 770.768 240.014C767.582 242.102 763.133 243.146 757.421 243.146C751.05 243.146 745.832 241.333 741.768 237.706C737.813 234.079 735.836 228.859 735.836 222.045C735.836 218.088 736.715 214.516 738.472 211.329C740.23 208.142 743.416 205.175 748.029 202.427C752.643 199.679 759.179 197.097 767.637 194.679C769.285 194.129 771.207 193.58 773.404 193.03C775.601 192.481 777.853 191.931 780.16 191.382V185.942C780.16 178.578 779.226 173.578 777.359 170.94C775.601 168.302 772.086 166.983 766.813 166.983C766.044 166.983 765.33 166.983 764.671 166.983C764.012 166.983 763.243 167.038 762.365 167.148L761.541 174.402C761.431 179.787 760.168 183.689 757.751 186.106C755.444 188.524 752.698 189.733 749.512 189.733C743.47 189.733 739.79 186.986 738.472 181.491C738.912 174.677 742.372 169.127 748.853 164.84C755.334 160.554 764.507 158.411 776.37 158.411C786.916 158.411 794.441 160.829 798.944 165.665C803.558 170.5 805.865 178.468 805.865 189.568V226.496C805.865 229.683 807.073 231.276 809.49 231.276C810.369 231.276 811.193 231.057 811.961 230.617C812.73 230.068 813.554 229.078 814.433 227.65L818.882 230.617C816.905 235.013 814.323 238.2 811.138 240.179C808.062 242.047 804.052 242.981 799.109 242.981ZM760.222 217.758C760.222 221.825 761.156 224.847 763.024 226.825C765.001 228.804 767.363 229.793 770.109 229.793C771.317 229.793 772.58 229.518 773.899 228.969C775.217 228.419 777.304 227.155 780.16 225.177V198.471C778.732 198.91 777.304 199.405 775.876 199.954C774.558 200.394 773.404 200.833 772.416 201.273C768.681 202.812 765.715 205.01 763.518 207.867C761.321 210.615 760.222 213.912 760.222 217.758Z" fill="#002903"/>
<path d="M819.824 278.095V270.347L829.052 268.369C829.161 263.203 829.216 258.368 829.216 253.861C829.326 249.465 829.381 245.234 829.381 241.168V196.492C829.381 191.986 829.326 188.524 829.216 186.106C829.216 183.579 829.107 180.666 828.887 177.369L818.671 175.886V169.456L850.967 158.411L853.768 160.06L854.427 169.291C861.347 162.038 869.476 158.411 878.813 158.411C884.855 158.411 890.293 160.005 895.126 163.192C899.959 166.379 903.804 171.105 906.66 177.369C909.626 183.634 911.109 191.327 911.109 200.449C911.109 209.241 909.461 216.879 906.166 223.363C902.87 229.738 898.531 234.629 893.149 238.036C887.876 241.442 882.109 243.146 875.847 243.146C867.389 243.146 860.469 240.289 855.086 234.574V241.003C855.086 245.069 855.086 249.301 855.086 253.697C855.196 258.093 855.306 262.819 855.415 267.874L865.961 270.347V278.095H819.824ZM866.785 172.753C864.698 172.753 862.72 173.193 860.853 174.072C859.095 174.951 857.338 176.05 855.58 177.369V225.177C858.876 227.924 862.446 229.298 866.291 229.298C871.234 229.298 875.243 226.99 878.319 222.374C881.505 217.758 883.097 210.56 883.097 200.778C883.097 190.997 881.56 183.908 878.484 179.512C875.518 175.006 871.618 172.753 866.785 172.753Z" fill="#002903"/>
<path d="M919.578 240.673V232.925L928.641 230.947C928.751 226.77 928.805 222.594 928.805 218.418C928.915 214.242 928.97 210.12 928.97 206.054V136.98L918.754 135.331V128.408L953.357 120.989L955.993 122.638L955.334 145.717V206.054C955.334 210.23 955.334 214.406 955.334 218.583C955.444 222.759 955.554 226.935 955.664 231.112L964.726 232.925V240.673H919.578Z" fill="#002903"/>
<path d="M973.499 240.673V232.925L982.397 230.947C982.507 226.99 982.562 222.704 982.562 218.088C982.562 213.472 982.562 209.461 982.562 206.054V198.141C982.562 193.635 982.507 189.898 982.397 186.931C982.397 183.853 982.287 180.666 982.067 177.369L971.851 175.886V169.456L1006.45 158.411L1009.26 160.224L1008.76 184.128V206.054C1008.76 209.461 1008.76 213.527 1008.76 218.253C1008.76 222.869 1008.82 227.21 1008.93 231.276L1017.16 232.925V240.673H973.499ZM995.414 146.212C991.569 146.212 988.274 145.003 985.528 142.585C982.781 140.057 981.408 136.925 981.408 133.188C981.408 129.342 982.781 126.21 985.528 123.792C988.274 121.264 991.569 120 995.414 120C999.259 120 1002.55 121.264 1005.3 123.792C1008.05 126.21 1009.42 129.342 1009.42 133.188C1009.42 136.925 1008.05 140.057 1005.3 142.585C1002.55 145.003 999.259 146.212 995.414 146.212Z" fill="#002903"/>
<path d="M1025.31 240.673V232.925L1034.2 230.947C1034.31 226.99 1034.37 222.704 1034.37 218.088C1034.37 213.472 1034.37 209.461 1034.37 206.054V196.492C1034.37 191.986 1034.31 188.524 1034.2 186.106C1034.2 183.579 1034.09 180.666 1033.87 177.369L1023.82 175.886V169.456L1056.28 158.411L1059.25 160.224L1060.24 172.094C1064.52 167.038 1068.75 163.521 1072.92 161.543C1077.21 159.455 1081.77 158.411 1086.6 158.411C1093.74 158.411 1099.45 160.774 1103.74 165.5C1108.13 170.226 1110.33 177.314 1110.33 186.766V206.054C1110.33 209.681 1110.33 213.802 1110.33 218.418C1110.33 222.924 1110.38 227.21 1110.49 231.276L1118.73 232.925V240.673H1075.23V232.925L1083.8 231.112C1083.91 227.045 1083.96 222.759 1083.96 218.253C1083.96 213.637 1083.96 209.571 1083.96 206.054V188.744C1083.96 183.469 1083.25 179.787 1081.82 177.699C1080.39 175.501 1078.09 174.402 1074.9 174.402C1070.62 174.402 1065.89 176.38 1060.73 180.337V206.054C1060.73 209.461 1060.73 213.527 1060.73 218.253C1060.73 222.869 1060.79 227.21 1060.9 231.276L1068.64 232.925V240.673H1025.31Z" fill="#002903"/>
<path d="M1162.6 203.746C1166.44 203.746 1169.3 202.042 1171.16 198.635C1173.14 195.228 1174.13 190.612 1174.13 184.788C1174.13 178.963 1173.14 174.457 1171.16 171.27C1169.3 167.973 1166.55 166.324 1162.93 166.324C1159.19 166.324 1156.39 167.973 1154.52 171.27C1152.66 174.567 1151.72 179.128 1151.72 184.953C1151.72 190.777 1152.6 195.393 1154.36 198.8C1156.12 202.097 1158.86 203.746 1162.6 203.746ZM1140.68 254.356C1140.68 259.192 1142.49 262.709 1146.12 264.907C1149.74 267.215 1155.29 268.369 1162.76 268.369C1171 268.369 1177.21 267.16 1181.38 264.742C1185.56 262.324 1187.64 259.302 1187.64 255.675C1187.64 253.257 1186.76 251.059 1185.01 249.081C1183.25 247.212 1180.12 246.278 1175.61 246.278H1158.31C1152.27 246.278 1147.27 245.784 1143.32 244.795C1142.44 246.333 1141.78 247.817 1141.34 249.246C1140.9 250.674 1140.68 252.378 1140.68 254.356ZM1162.76 211.494C1157.05 211.494 1152.05 210.835 1147.77 209.516C1146.45 211.824 1145.79 214.351 1145.79 217.099C1145.79 218.967 1146.5 220.506 1147.93 221.715C1149.36 222.814 1151.83 223.363 1155.35 223.363H1174.62C1182.97 223.363 1189.62 224.408 1194.56 226.496C1199.51 228.474 1203.02 231.276 1205.11 234.903C1207.31 238.42 1208.4 242.596 1208.4 247.432C1208.4 252.927 1206.59 257.983 1202.97 262.599C1199.34 267.325 1193.9 271.061 1186.65 273.809C1179.51 276.666 1170.67 278.095 1160.12 278.095C1151.01 278.095 1143.87 277.161 1138.7 275.293C1133.54 273.534 1129.92 271.171 1127.83 268.204C1125.74 265.236 1124.7 262.104 1124.7 258.807C1124.7 251.773 1129.26 246.113 1138.37 241.827C1134.97 240.398 1132.5 238.53 1130.96 236.222C1129.53 233.914 1128.82 231.386 1128.82 228.639C1128.82 224.792 1129.92 221.165 1132.11 217.758C1134.42 214.242 1137.61 210.725 1141.67 207.208C1137.17 204.9 1133.82 201.823 1131.62 197.976C1129.42 194.129 1128.32 189.843 1128.32 185.117C1128.32 177.424 1131.12 171.05 1136.73 165.994C1142.44 160.939 1151.12 158.411 1162.76 158.411C1168.69 158.411 1173.86 159.07 1178.25 160.389C1182.64 161.708 1186.21 163.576 1188.96 165.994L1207.42 158.081L1210.05 159.73V172.424H1194.4C1196.38 176.05 1197.36 180.282 1197.36 185.117C1197.36 192.481 1194.51 198.745 1188.8 203.911C1183.19 208.966 1174.52 211.494 1162.76 211.494Z" fill="#002903"/>
<path d="M661.483 405.527V397.779L670.381 395.801C670.491 391.844 670.546 387.558 670.546 382.942C670.546 378.326 670.546 374.315 670.546 370.908V361.346C670.546 356.84 670.491 353.378 670.381 350.961C670.381 348.433 670.271 345.52 670.051 342.223L660 340.74V334.31L692.46 323.265L695.426 325.078L696.415 336.948C700.26 332.442 704.269 329.035 708.444 326.727C712.728 324.419 717.286 323.265 722.12 323.265C733.434 323.265 740.739 328.156 744.035 337.937C748.539 332.442 752.878 328.65 757.052 326.562C761.336 324.364 765.84 323.265 770.563 323.265C778.912 323.265 785.008 325.683 788.853 330.519C792.698 335.354 794.62 342.663 794.62 352.444V370.908C794.62 374.425 794.62 378.491 794.62 383.107C794.62 387.723 794.675 392.009 794.785 395.966L803.024 397.779V405.527H760.512V397.779L768.586 395.801C768.696 391.844 768.751 387.613 768.751 383.107C768.751 378.491 768.751 374.425 768.751 370.908V354.917C768.751 348.762 768.037 344.641 766.609 342.553C765.181 340.355 762.764 339.256 759.359 339.256C754.745 339.256 750.131 341.234 745.518 345.191C745.628 346.18 745.682 347.224 745.682 348.323C745.792 349.312 745.847 350.411 745.847 351.62V370.908C745.847 374.535 745.847 378.656 745.847 383.272C745.847 387.778 745.902 392.064 746.012 396.131L753.756 397.779V405.527H711.245V397.779L719.813 395.801C719.923 391.844 719.978 387.613 719.978 383.107C719.978 378.491 719.978 374.425 719.978 370.908V355.082C719.978 349.257 719.264 345.191 717.836 342.883C716.517 340.465 714.046 339.256 710.421 339.256C708.114 339.256 705.807 339.805 703.5 340.904C701.193 342.003 698.996 343.432 696.909 345.191V370.908C696.909 374.315 696.909 378.381 696.909 383.107C696.909 387.723 696.964 392.064 697.074 396.131L704.819 397.779V405.527H661.483Z" fill="#002903"/>
<path d="M852.988 408C844.419 408 837.005 406.242 830.743 402.725C824.482 399.098 819.648 394.097 816.243 387.723C812.838 381.239 811.135 373.765 811.135 365.303C811.135 356.84 812.948 349.477 816.573 343.212C820.307 336.948 825.361 332.057 831.732 328.54C838.103 325.023 845.188 323.265 852.988 323.265C860.787 323.265 867.817 324.969 874.079 328.376C880.45 331.783 885.503 336.673 889.238 343.048C892.973 349.312 894.84 356.73 894.84 365.303C894.84 373.875 893.138 381.349 889.732 387.723C886.327 394.097 881.493 399.098 875.232 402.725C868.971 406.242 861.556 408 852.988 408ZM852.988 399.428C857.601 399.428 861.062 396.735 863.368 391.35C865.675 385.965 866.829 377.447 866.829 365.797C866.829 354.038 865.675 345.465 863.368 340.08C861.062 334.695 857.601 332.002 852.988 332.002C848.264 332.002 844.749 334.695 842.442 340.08C840.135 345.465 838.982 354.038 838.982 365.797C838.982 377.447 840.135 385.965 842.442 391.35C844.749 396.735 848.264 399.428 852.988 399.428Z" fill="#002903"/>
<path d="M953.103 333.156V325.903H984.245V333.156L974.689 334.97L947.501 405.857H934.978L905.319 334.805L897.245 333.156V325.903H944.041V333.156L933.66 335.299L949.149 377.502L963.484 335.135L953.103 333.156Z" fill="#002903"/>
<path d="M1026.26 331.837C1023.19 331.837 1020.33 333.761 1017.69 337.607C1015.17 341.344 1013.74 348.268 1013.41 358.379H1027.42C1031.37 358.379 1034.01 357.61 1035.33 356.071C1036.75 354.422 1037.47 351.73 1037.47 347.993C1037.47 342.498 1036.37 338.432 1034.17 335.794C1031.97 333.156 1029.34 331.837 1026.26 331.837ZM1026.59 408C1018.57 408 1011.49 406.351 1005.34 403.054C999.185 399.647 994.352 394.812 990.836 388.547C987.321 382.173 985.564 374.59 985.564 365.797C985.564 356.566 987.596 348.817 991.66 342.553C995.835 336.179 1001.16 331.398 1007.64 328.211C1014.12 324.914 1020.88 323.265 1027.91 323.265C1035.16 323.265 1041.31 324.804 1046.37 327.881C1051.53 330.958 1055.43 335.135 1058.06 340.41C1060.7 345.575 1062.02 351.51 1062.02 358.214C1062.02 361.401 1061.69 364.314 1061.03 366.951H1013.41C1013.96 375.634 1016.32 382.063 1020.5 386.239C1024.78 390.306 1029.78 392.339 1035.49 392.339C1039.99 392.339 1043.84 391.515 1047.02 389.866C1050.21 388.108 1053.01 385.965 1055.43 383.437L1061.19 388.712C1057.79 395.196 1053.18 400.032 1047.35 403.219C1041.53 406.406 1034.61 408 1026.59 408Z" fill="#002903"/>
<path d="M1071.33 405.527V397.779L1080.22 395.801C1080.33 391.844 1080.39 387.558 1080.39 382.942C1080.39 378.326 1080.39 374.315 1080.39 370.908V361.346C1080.39 356.84 1080.33 353.378 1080.22 350.961C1080.22 348.433 1080.11 345.52 1079.89 342.223L1069.84 340.74V334.31L1102.3 323.265L1105.27 325.078L1106.26 336.948C1110.1 332.442 1114.11 329.035 1118.29 326.727C1122.57 324.419 1127.13 323.265 1131.96 323.265C1143.28 323.265 1150.58 328.156 1153.88 337.937C1158.38 332.442 1162.72 328.65 1166.89 326.562C1171.18 324.364 1175.68 323.265 1180.41 323.265C1188.75 323.265 1194.85 325.683 1198.7 330.519C1202.54 335.354 1204.46 342.663 1204.46 352.444V370.908C1204.46 374.425 1204.46 378.491 1204.46 383.107C1204.46 387.723 1204.52 392.009 1204.63 395.966L1212.87 397.779V405.527H1170.36V397.779L1178.43 395.801C1178.54 391.844 1178.59 387.613 1178.59 383.107C1178.59 378.491 1178.59 374.425 1178.59 370.908V354.917C1178.59 348.762 1177.88 344.641 1176.45 342.553C1175.02 340.355 1172.61 339.256 1169.2 339.256C1164.59 339.256 1159.97 341.234 1155.36 345.191C1155.47 346.18 1155.53 347.224 1155.53 348.323C1155.64 349.312 1155.69 350.411 1155.69 351.62V370.908C1155.69 374.535 1155.69 378.656 1155.69 383.272C1155.69 387.778 1155.75 392.064 1155.85 396.131L1163.6 397.779V405.527H1121.09V397.779L1129.66 395.801C1129.77 391.844 1129.82 387.613 1129.82 383.107C1129.82 378.491 1129.82 374.425 1129.82 370.908V355.082C1129.82 349.257 1129.11 345.191 1127.68 342.883C1126.36 340.465 1123.89 339.256 1120.26 339.256C1117.96 339.256 1115.65 339.805 1113.34 340.904C1111.04 342.003 1108.84 343.432 1106.75 345.191V370.908C1106.75 374.315 1106.75 378.381 1106.75 383.107C1106.75 387.723 1106.81 392.064 1106.92 396.131L1114.66 397.779V405.527H1071.33Z" fill="#002903"/>
<path d="M1261.68 331.837C1258.6 331.837 1255.75 333.761 1253.11 337.607C1250.58 341.344 1249.15 348.268 1248.82 358.379H1262.83C1266.79 358.379 1269.42 357.61 1270.74 356.071C1272.17 354.422 1272.88 351.73 1272.88 347.993C1272.88 342.498 1271.78 338.432 1269.59 335.794C1267.39 333.156 1264.75 331.837 1261.68 331.837ZM1262.01 408C1253.99 408 1246.9 406.351 1240.75 403.054C1234.6 399.647 1229.77 394.812 1226.25 388.547C1222.74 382.173 1220.98 374.59 1220.98 365.797C1220.98 356.566 1223.01 348.817 1227.07 342.553C1231.25 336.179 1236.58 331.398 1243.06 328.211C1249.54 324.914 1256.29 323.265 1263.32 323.265C1270.57 323.265 1276.73 324.804 1281.78 327.881C1286.94 330.958 1290.84 335.135 1293.48 340.41C1296.11 345.575 1297.43 351.51 1297.43 358.214C1297.43 361.401 1297.1 364.314 1296.44 366.951H1248.82C1249.37 375.634 1251.74 382.063 1255.91 386.239C1260.19 390.306 1265.19 392.339 1270.9 392.339C1275.41 392.339 1279.25 391.515 1282.44 389.866C1285.62 388.108 1288.43 385.965 1290.84 383.437L1296.61 388.712C1293.2 395.196 1288.59 400.032 1282.77 403.219C1276.95 406.406 1270.03 408 1262.01 408Z" fill="#002903"/>
<path d="M1306.74 405.527V397.779L1315.64 395.801C1315.75 391.844 1315.8 387.558 1315.8 382.942C1315.8 378.326 1315.8 374.315 1315.8 370.908V361.346C1315.8 356.84 1315.75 353.378 1315.64 350.961C1315.64 348.433 1315.53 345.52 1315.31 342.223L1305.26 340.74V334.31L1337.72 323.265L1340.68 325.078L1341.67 336.948C1345.96 331.892 1350.19 328.376 1354.36 326.397C1358.64 324.309 1363.2 323.265 1368.04 323.265C1375.18 323.265 1380.89 325.628 1385.17 330.354C1389.57 335.08 1391.76 342.168 1391.76 351.62V370.908C1391.76 374.535 1391.76 378.656 1391.76 383.272C1391.76 387.778 1391.82 392.064 1391.93 396.131L1400.17 397.779V405.527H1356.67V397.779L1365.23 395.966C1365.34 391.899 1365.4 387.613 1365.4 383.107C1365.4 378.491 1365.4 374.425 1365.4 370.908V353.598C1365.4 348.323 1364.69 344.641 1363.26 342.553C1361.83 340.355 1359.52 339.256 1356.34 339.256C1352.05 339.256 1347.33 341.234 1342.17 345.191V370.908C1342.17 374.315 1342.17 378.381 1342.17 383.107C1342.17 387.723 1342.22 392.064 1342.33 396.131L1350.08 397.779V405.527H1306.74Z" fill="#002903"/>
<path d="M1438.78 408C1431.42 408 1425.65 406.242 1421.48 402.725C1417.3 399.098 1415.22 393.218 1415.22 385.085C1415.22 382.228 1415.22 379.59 1415.22 377.172C1415.33 374.645 1415.38 371.787 1415.38 368.6V337.113H1404.67V327.386L1416.86 325.738L1425.1 302.658H1441.91L1441.58 325.903H1458.88V337.113H1441.58V383.272C1441.58 387.119 1442.35 389.976 1443.89 391.844C1445.53 393.603 1447.57 394.482 1449.98 394.482C1452.84 394.482 1455.8 393.273 1458.88 390.855L1463 394.812C1460.8 398.988 1457.73 402.23 1453.77 404.538C1449.93 406.846 1444.93 408 1438.78 408Z" fill="#002903"/>
<path d="M560 280C560 390.448 470.457 479.983 360 479.983C249.543 479.983 160 390.448 160 280C160 169.553 249.543 80.0172 360 80.0172C470.457 80.0172 560 169.553 560 280Z" fill="#E4EDCF"/>
<path d="M318.019 443.102C317.03 447.503 316.198 451.939 315.524 456.399L331.198 445.425L318.019 443.102Z" fill="#90CDA8"/>
<path d="M335.757 468.433L338.081 455.254L322.407 466.228C326.829 467.12 331.282 467.856 335.757 468.433Z" fill="#90CDA8"/>
<path d="M380.677 425.431L351.982 445.521L347.737 469.595C356.095 470.142 364.499 470.138 372.892 469.576L380.677 425.431Z" fill="#90CDA8"/>
<path d="M373.794 415.602L329.645 407.818C326.246 415.512 323.369 423.407 321.023 431.447L345.1 435.692L373.794 415.602Z" fill="#90CDA8"/>
<path d="M335.054 396.588L387.695 405.869L416.39 385.778L349.035 373.903C343.816 381.168 339.151 388.751 335.054 396.588Z" fill="#90CDA8"/>
<path d="M423.273 395.607L394.578 415.698L385.296 468.334C394.062 467.165 402.784 465.376 411.396 462.957L423.273 395.607Z" fill="#90CDA8"/>
<path d="M378.322 341.733L458.986 355.955L430.291 376.045L357.337 363.183C363.675 355.58 370.675 348.401 378.322 341.733Z" fill="#90CDA8"/>
<path d="M465.869 365.784L451.646 446.441C442.764 451.345 433.623 455.467 424.311 458.822L437.174 385.874L465.869 365.784Z" fill="#90CDA8"/>
<path d="M390.788 331.747L472.887 346.222L501.582 326.132L423.497 312.364C411.984 317.715 401.016 324.229 390.788 331.747Z" fill="#90CDA8"/>
<path d="M465.294 438.143C475.858 431.104 485.73 423.026 494.696 414.039L508.465 335.961L479.77 356.051L465.294 438.143Z" fill="#90CDA8"/>
<path d="M444.911 303.956C476.306 293.79 509.426 292.177 540.987 298.542L515.483 316.399L444.911 303.956Z" fill="#90CDA8"/>
<path d="M509.922 396.794C530.213 370.772 543.057 340.204 547.87 308.371L522.366 326.228L509.922 396.794Z" fill="#90CDA8"/>
<path d="M210.078 163.206L197.634 233.773L172.13 251.629C176.942 219.796 189.787 189.228 210.078 163.206Z" fill="#90CDA8"/>
<path d="M254.706 121.857L240.23 203.949L211.535 224.039L225.304 145.961C234.27 136.974 244.142 128.896 254.706 121.857Z" fill="#90CDA8"/>
<path d="M254.131 194.216L268.354 113.559C277.236 108.655 286.377 104.533 295.689 101.178L282.826 174.126L254.131 194.216Z" fill="#90CDA8"/>
<path d="M296.727 164.393L308.604 97.0433C317.216 94.6239 325.938 92.8352 334.704 91.6656L325.422 144.302L296.727 164.393Z" fill="#90CDA8"/>
<path d="M339.323 134.569L368.017 114.479L372.263 90.4045C363.905 89.8584 355.501 89.8616 347.108 90.424L339.323 134.569Z" fill="#90CDA8"/>
<path d="M384.243 91.5673C388.718 92.1444 393.171 92.8796 397.593 93.7716L381.919 104.746L384.243 91.5673Z" fill="#90CDA8"/>
<path d="M401.981 116.898C402.97 112.497 403.802 108.061 404.476 103.601L388.802 114.575L401.981 116.898Z" fill="#90CDA8"/>
<path d="M346.206 144.398L390.355 152.182C393.754 144.488 396.631 136.593 398.977 128.553L374.9 124.308L346.206 144.398Z" fill="#90CDA8"/>
<path d="M384.946 163.413L332.304 154.131L303.61 174.222L370.965 186.097C376.184 178.832 380.848 171.249 384.946 163.413Z" fill="#90CDA8"/>
<path d="M341.678 218.267L261.014 204.045L289.709 183.955L362.663 196.817C356.325 204.42 349.325 211.599 341.678 218.267Z" fill="#90CDA8"/>
<path d="M329.212 228.253C318.984 235.771 308.016 242.285 296.503 247.636L218.418 233.868L247.113 213.778L329.212 228.253Z" fill="#90CDA8"/>
<path d="M275.089 256.044C243.694 266.21 210.574 267.823 179.013 261.458L204.517 243.601L275.089 256.044Z" fill="#90CDA8"/>
<path fill-rule="evenodd" clip-rule="evenodd" d="M234.897 123.962C253.966 108.656 275.9 96.7736 299.767 89.2458C323.701 81.6823 348.557 78.8222 373.027 80.4346C477.412 87.1451 560 173.929 560 280C560 284.313 559.863 288.593 559.595 292.838C559.594 292.838 559.595 292.838 559.595 292.838C559.591 292.897 559.587 292.956 559.583 293.015C557.754 321.495 549.962 348.352 537.443 372.352C524.958 396.385 507.416 418.184 485.119 436.025C466.003 451.372 444.007 463.278 420.071 470.805C396.219 478.321 371.453 481.167 347.071 479.572C242.639 472.909 160 386.104 160 280C160 275.687 160.137 271.407 160.405 267.162C160.406 267.162 160.405 267.162 160.405 267.162C160.408 267.12 160.411 267.079 160.413 267.037C162.237 238.533 170.033 211.654 182.563 187.636C195.051 163.602 212.597 141.802 234.897 123.962ZM170.271 269.774C170.091 273.16 170 276.569 170 280C170 365.697 226.745 438.142 304.714 461.816C309.361 421.724 326.061 383.164 353.78 351.989C336.326 352.132 319.14 347.978 304 339.197L304.838 305.259H327.182L331.93 332.799C335.282 334.097 338.633 335.117 341.985 335.859C345.337 336.415 348.968 336.694 352.878 336.694C360.885 336.694 367.029 335.395 371.312 332.799C375.594 330.017 377.736 325.844 377.736 320.281C377.736 316.015 376.153 312.306 372.988 309.153C369.822 306 363.584 303.126 354.274 300.529L339.192 296.078C328.392 292.926 320.013 287.826 314.055 280.778C307.972 273.351 305.362 263.954 305.397 254.455C262.577 275.731 214.708 280.339 170.271 269.774ZM372.896 469.553C368.635 469.839 364.334 469.984 360 469.984C355.881 469.984 351.792 469.853 347.737 469.594L351.983 445.521L380.677 425.431L372.896 469.553ZM411.397 462.951C402.923 465.326 394.209 467.129 385.3 468.314L394.578 415.698L423.273 395.607L411.397 462.951ZM494.706 413.982C489.798 418.916 484.62 423.582 479.197 427.956C474.718 431.556 470.077 434.956 465.294 438.143L479.77 356.051L508.465 335.961L494.706 413.982ZM529.157 366.602C523.689 377.259 517.243 387.332 509.939 396.702L522.366 326.227L547.87 308.371C544.816 328.57 538.529 348.259 529.157 366.602ZM549.729 290.226C549.909 286.84 550 283.431 550 280C550 194.303 493.255 121.858 415.286 98.1846C410.588 138.709 393.577 177.668 365.318 209.018C372.915 209.139 379.941 210.155 386.394 212.066C393.47 213.921 400.638 216.703 407.9 220.412L405.945 250.734H383.601L378.015 226.81C374.105 225.326 368.984 224.585 362.653 224.585C356.323 224.585 351.202 225.883 347.292 228.479C343.568 231.076 341.706 234.97 341.706 240.163C341.706 243.872 343.195 247.21 346.175 250.178C349.154 252.96 355.485 255.834 365.167 258.801L378.853 262.696C392.073 266.591 401.569 272.154 407.342 279.387C412.937 286.398 415.82 294.889 415.992 304.862C458.456 284.171 505.772 279.775 549.729 290.226ZM347.104 90.4471C351.365 90.1615 355.666 90.0164 360 90.0164C364.119 90.0164 368.208 90.1474 372.263 90.4057L368.018 114.479L339.323 134.569L347.104 90.4471ZM308.603 97.0493C317.077 94.6738 325.791 92.8712 334.7 91.6859L325.422 144.302L296.727 164.393L308.603 97.0493ZM225.294 146.018C230.21 141.076 235.396 136.404 240.828 132.024C245.3 128.431 249.932 125.038 254.706 121.857L240.23 203.949L211.535 224.039L225.294 146.018ZM190.844 193.396C196.312 182.739 202.757 172.667 210.062 163.298L197.634 233.772L172.13 251.629C175.184 231.429 181.472 211.739 190.844 193.396ZM329.212 228.253C318.984 235.771 308.016 242.285 296.503 247.636L218.418 233.868L247.113 213.778L329.212 228.253ZM254.131 194.216L268.354 113.559C277.236 108.655 286.377 104.533 295.689 101.178L282.826 174.126L254.131 194.216ZM341.678 218.267L261.014 204.045L289.709 183.955L362.663 196.817C356.325 204.42 349.325 211.599 341.678 218.267ZM275.09 256.044C243.694 266.21 210.574 267.823 179.013 261.458L204.517 243.601L275.09 256.044ZM384.946 163.412L332.305 154.131L303.61 174.222L370.965 186.097C376.184 178.832 380.849 171.249 384.946 163.412ZM346.206 144.398L390.355 152.182C393.754 144.488 396.632 136.593 398.977 128.553L374.9 124.308L346.206 144.398ZM401.981 116.898C402.97 112.497 403.802 108.061 404.476 103.601L388.802 114.575L401.981 116.898ZM384.243 91.5673C388.718 92.1443 393.171 92.8796 397.593 93.7716L381.919 104.746L384.243 91.5673ZM390.788 331.747L472.887 346.222L501.582 326.132L423.497 312.364C411.984 317.715 401.016 324.229 390.788 331.747ZM465.869 365.784L451.646 446.441C442.764 451.345 433.623 455.467 424.311 458.822L437.174 385.874L465.869 365.784ZM378.322 341.733L458.986 355.955L430.291 376.045L357.337 363.183C363.675 355.58 370.675 348.401 378.322 341.733ZM444.911 303.956C476.306 293.79 509.426 292.177 540.987 298.542L515.483 316.399L444.911 303.956ZM335.054 396.587L387.696 405.869L416.39 385.778L349.035 373.903C343.816 381.168 339.152 388.751 335.054 396.587ZM373.794 415.602L329.645 407.818C326.246 415.512 323.369 423.407 321.023 431.447L345.1 435.692L373.794 415.602ZM318.019 443.102C317.03 447.503 316.198 451.939 315.524 456.399L331.198 445.425L318.019 443.102ZM335.757 468.433L338.081 455.254L322.407 466.228C326.829 467.12 331.282 467.856 335.757 468.433Z" fill="#002903"/>
</svg>
