<svg width="560" height="560" viewBox="0 0 560 560" fill="none" xmlns="http://www.w3.org/2000/svg">
<path d="M480 280C480 390.448 390.457 479.983 280 479.983C169.543 479.983 80 390.448 80 280C80 169.553 169.543 80.0172 280 80.0172C390.457 80.0172 480 169.553 480 280Z" fill="#E4EDCF"/>
<path d="M238.019 443.102C237.03 447.503 236.198 451.939 235.524 456.399L251.198 445.425L238.019 443.102Z" fill="#90CDA8"/>
<path d="M255.757 468.433L258.081 455.254L242.407 466.228C246.829 467.12 251.282 467.856 255.757 468.433Z" fill="#90CDA8"/>
<path d="M300.677 425.431L271.982 445.521L267.737 469.595C276.095 470.142 284.499 470.138 292.892 469.576L300.677 425.431Z" fill="#90CDA8"/>
<path d="M293.794 415.602L249.645 407.818C246.246 415.512 243.369 423.407 241.023 431.447L265.1 435.692L293.794 415.602Z" fill="#90CDA8"/>
<path d="M255.054 396.588L307.695 405.869L336.39 385.778L269.035 373.903C263.816 381.168 259.151 388.751 255.054 396.588Z" fill="#90CDA8"/>
<path d="M343.273 395.607L314.578 415.698L305.296 468.334C314.062 467.165 322.784 465.376 331.396 462.957L343.273 395.607Z" fill="#90CDA8"/>
<path d="M298.322 341.733L378.986 355.955L350.291 376.045L277.337 363.183C283.675 355.58 290.675 348.401 298.322 341.733Z" fill="#90CDA8"/>
<path d="M385.869 365.784L371.646 446.441C362.764 451.345 353.623 455.467 344.311 458.822L357.174 385.874L385.869 365.784Z" fill="#90CDA8"/>
<path d="M310.788 331.747L392.887 346.222L421.582 326.132L343.497 312.364C331.984 317.715 321.016 324.229 310.788 331.747Z" fill="#90CDA8"/>
<path d="M385.294 438.143C395.858 431.104 405.73 423.026 414.696 414.039L428.465 335.961L399.77 356.051L385.294 438.143Z" fill="#90CDA8"/>
<path d="M364.911 303.956C396.306 293.79 429.426 292.177 460.987 298.542L435.483 316.399L364.911 303.956Z" fill="#90CDA8"/>
<path d="M429.922 396.794C450.213 370.772 463.057 340.204 467.87 308.371L442.366 326.228L429.922 396.794Z" fill="#90CDA8"/>
<path d="M130.078 163.206L117.634 233.773L92.1299 251.629C96.9425 219.796 109.787 189.228 130.078 163.206Z" fill="#90CDA8"/>
<path d="M174.706 121.857L160.23 203.949L131.535 224.039L145.304 145.961C154.27 136.974 164.142 128.896 174.706 121.857Z" fill="#90CDA8"/>
<path d="M174.131 194.216L188.354 113.559C197.236 108.655 206.377 104.533 215.689 101.178L202.826 174.126L174.131 194.216Z" fill="#90CDA8"/>
<path d="M216.727 164.393L228.604 97.0433C237.216 94.6239 245.938 92.8352 254.704 91.6656L245.422 144.302L216.727 164.393Z" fill="#90CDA8"/>
<path d="M259.323 134.569L288.017 114.479L292.263 90.4045C283.905 89.8584 275.501 89.8616 267.108 90.424L259.323 134.569Z" fill="#90CDA8"/>
<path d="M304.243 91.5673C308.718 92.1444 313.171 92.8796 317.593 93.7716L301.919 104.746L304.243 91.5673Z" fill="#90CDA8"/>
<path d="M321.981 116.898C322.97 112.497 323.802 108.061 324.476 103.601L308.802 114.575L321.981 116.898Z" fill="#90CDA8"/>
<path d="M266.206 144.398L310.355 152.182C313.754 144.488 316.631 136.593 318.977 128.553L294.9 124.308L266.206 144.398Z" fill="#90CDA8"/>
<path d="M304.946 163.413L252.304 154.131L223.61 174.222L290.965 186.097C296.184 178.832 300.848 171.249 304.946 163.413Z" fill="#90CDA8"/>
<path d="M261.678 218.267L181.014 204.045L209.709 183.955L282.663 196.817C276.325 204.42 269.325 211.599 261.678 218.267Z" fill="#90CDA8"/>
<path d="M249.212 228.253C238.984 235.771 228.016 242.285 216.503 247.636L138.418 233.868L167.113 213.778L249.212 228.253Z" fill="#90CDA8"/>
<path d="M195.089 256.044C163.694 266.21 130.574 267.823 99.0128 261.458L124.517 243.601L195.089 256.044Z" fill="#90CDA8"/>
<path fill-rule="evenodd" clip-rule="evenodd" d="M154.897 123.962C173.966 108.656 195.9 96.7736 219.767 89.2458C243.701 81.6823 268.557 78.8222 293.027 80.4346C397.412 87.1451 480 173.929 480 280C480 284.313 479.863 288.593 479.595 292.838C479.594 292.838 479.595 292.838 479.595 292.838C479.591 292.897 479.587 292.956 479.583 293.015C477.754 321.495 469.962 348.352 457.443 372.352C444.958 396.385 427.416 418.184 405.119 436.025C386.003 451.372 364.007 463.278 340.071 470.805C316.219 478.321 291.453 481.167 267.071 479.572C162.639 472.909 80 386.104 80 280C80 275.687 80.1365 271.407 80.4055 267.162C80.4055 267.162 80.4054 267.162 80.4055 267.162C80.4082 267.12 80.4107 267.079 80.4134 267.037C82.2372 238.533 90.033 211.654 102.563 187.636C115.051 163.602 132.597 141.802 154.897 123.962ZM90.2706 269.774C90.0909 273.16 90 276.569 90 280C90 365.697 146.745 438.142 224.714 461.816C229.361 421.724 246.061 383.164 273.78 351.989C256.326 352.132 239.14 347.978 224 339.197L224.838 305.259H247.182L251.93 332.799C255.282 334.097 258.633 335.117 261.985 335.859C265.337 336.415 268.968 336.694 272.878 336.694C280.885 336.694 287.029 335.395 291.312 332.799C295.594 330.017 297.736 325.844 297.736 320.281C297.736 316.015 296.153 312.306 292.988 309.153C289.822 306 283.584 303.126 274.274 300.529L259.192 296.078C248.392 292.926 240.013 287.826 234.055 280.778C227.972 273.351 225.362 263.954 225.397 254.455C182.577 275.731 134.708 280.339 90.2706 269.774ZM292.896 469.553C288.635 469.839 284.334 469.984 280 469.984C275.881 469.984 271.792 469.853 267.737 469.594L271.983 445.521L300.677 425.431L292.896 469.553ZM331.397 462.951C322.923 465.326 314.209 467.129 305.3 468.314L314.578 415.698L343.273 395.607L331.397 462.951ZM414.706 413.982C409.798 418.916 404.62 423.582 399.197 427.956C394.718 431.556 390.077 434.956 385.294 438.143L399.77 356.051L428.465 335.961L414.706 413.982ZM449.157 366.602C443.689 377.259 437.243 387.332 429.939 396.702L442.366 326.227L467.87 308.371C464.816 328.57 458.529 348.259 449.157 366.602ZM469.729 290.226C469.909 286.84 470 283.431 470 280C470 194.303 413.255 121.858 335.286 98.1846C330.588 138.709 313.577 177.668 285.318 209.018C292.915 209.139 299.941 210.155 306.394 212.066C313.47 213.921 320.638 216.703 327.9 220.412L325.945 250.734H303.601L298.015 226.81C294.105 225.326 288.984 224.585 282.653 224.585C276.323 224.585 271.202 225.883 267.292 228.479C263.568 231.076 261.706 234.97 261.706 240.163C261.706 243.872 263.195 247.21 266.175 250.178C269.154 252.96 275.485 255.834 285.167 258.801L298.853 262.696C312.073 266.591 321.569 272.154 327.342 279.387C332.937 286.398 335.82 294.889 335.992 304.862C378.456 284.171 425.772 279.775 469.729 290.226ZM267.104 90.4471C271.365 90.1615 275.666 90.0164 280 90.0164C284.119 90.0164 288.208 90.1474 292.263 90.4057L288.018 114.479L259.323 134.569L267.104 90.4471ZM228.603 97.0493C237.077 94.6738 245.791 92.8712 254.7 91.6859L245.422 144.302L216.727 164.393L228.603 97.0493ZM145.294 146.018C150.21 141.076 155.396 136.404 160.828 132.024C165.3 128.431 169.932 125.038 174.706 121.857L160.23 203.949L131.535 224.039L145.294 146.018ZM110.844 193.396C116.312 182.739 122.757 172.667 130.062 163.298L117.634 233.772L92.1299 251.629C95.1838 231.429 101.472 211.739 110.844 193.396ZM249.212 228.253C238.984 235.771 228.016 242.285 216.503 247.636L138.418 233.868L167.113 213.778L249.212 228.253ZM174.131 194.216L188.354 113.559C197.236 108.655 206.377 104.533 215.689 101.178L202.826 174.126L174.131 194.216ZM261.678 218.267L181.014 204.045L209.709 183.955L282.663 196.817C276.325 204.42 269.325 211.599 261.678 218.267ZM195.09 256.044C163.694 266.21 130.574 267.823 99.0129 261.458L124.517 243.601L195.09 256.044ZM304.946 163.412L252.305 154.131L223.61 174.222L290.965 186.097C296.184 178.832 300.849 171.249 304.946 163.412ZM266.206 144.398L310.355 152.182C313.754 144.488 316.632 136.593 318.977 128.553L294.9 124.308L266.206 144.398ZM321.981 116.898C322.97 112.497 323.802 108.061 324.476 103.601L308.802 114.575L321.981 116.898ZM304.243 91.5673C308.718 92.1443 313.171 92.8796 317.593 93.7716L301.919 104.746L304.243 91.5673ZM310.788 331.747L392.887 346.222L421.582 326.132L343.497 312.364C331.984 317.715 321.016 324.229 310.788 331.747ZM385.869 365.784L371.646 446.441C362.764 451.345 353.623 455.467 344.311 458.822L357.174 385.874L385.869 365.784ZM298.322 341.733L378.986 355.955L350.291 376.045L277.337 363.183C283.675 355.58 290.675 348.401 298.322 341.733ZM364.911 303.956C396.306 293.79 429.426 292.177 460.987 298.542L435.483 316.399L364.911 303.956ZM255.054 396.587L307.696 405.869L336.39 385.778L269.035 373.903C263.816 381.168 259.152 388.751 255.054 396.587ZM293.794 415.602L249.645 407.818C246.246 415.512 243.369 423.407 241.023 431.447L265.1 435.692L293.794 415.602ZM238.019 443.102C237.03 447.503 236.198 451.939 235.524 456.399L251.198 445.425L238.019 443.102ZM255.757 468.433L258.081 455.254L242.407 466.228C246.829 467.12 251.282 467.856 255.757 468.433Z" fill="#002903"/>
<path fill-rule="evenodd" clip-rule="evenodd" d="M486 280C486 393.762 393.77 485.983 280 485.983C166.23 485.983 74 393.762 74 280C74 166.238 166.23 74.0172 280 74.0172C393.77 74.0172 486 166.238 486 280ZM280 479.983C390.457 479.983 480 390.448 480 280C480 169.553 390.457 80.0172 280 80.0172C169.543 80.0172 80 169.553 80 280C80 390.448 169.543 479.983 280 479.983Z" fill="#E4EDCF"/>
</svg>
