<svg width="560" height="560" viewBox="0 0 560 560" fill="none" xmlns="http://www.w3.org/2000/svg">
<path d="M497.966 284.439C495.783 405.124 383.727 493.214 265.142 487.758C151.306 478.73 65.4687 397.644 62.0906 285.884C58.4181 164.383 166.94 67.4961 288.41 72.1617C404.809 76.6325 500.072 167.976 497.966 284.439Z" fill="#F5FDE8"/>
<path d="M306.954 263.256C309.654 256.5 330.715 199.81 368.057 188.576C396.086 180.144 435.735 196.359 437.378 200.1C439.021 203.842 422.183 228.301 375.826 251.882C329.469 275.462 303.115 272.864 306.954 263.256Z" fill="#BBD491"/>
<path d="M127.871 315.522C137.14 303.075 165.872 267.37 193.929 262.305C222.235 257.195 259.55 282.473 271.259 291.087C273.088 292.432 272.912 295.101 270.932 296.211C261.345 301.584 235.692 314.763 206.601 319.789C177.255 324.859 142.903 321.873 130.021 320.432C127.597 320.161 126.415 317.478 127.871 315.522Z" fill="#BBD491"/>
<path fill-rule="evenodd" clip-rule="evenodd" d="M437.836 199.899C438.205 200.74 437.872 201.796 437.576 202.605C435.252 208.937 429.641 214.348 424.951 218.91C415.112 228.479 399.271 240.517 376.053 252.327C352.841 264.134 334.6 269.408 322.612 270.513C316.632 271.064 312.143 270.584 309.367 269.302C307.973 268.658 306.967 267.791 306.457 266.706C305.942 265.61 305.97 264.371 306.49 263.07C307.838 259.697 313.793 243.795 324.091 227.33C334.376 210.886 349.06 193.769 367.913 188.098C382.056 183.843 399.081 185.813 412.735 189.289C422.986 191.898 431.37 195.356 435.336 197.757C436.187 198.273 437.412 198.935 437.836 199.899ZM412.489 190.258C398.901 186.799 382.087 184.878 368.202 189.055C349.713 194.617 335.195 211.463 324.939 227.861C314.695 244.238 308.77 260.059 307.418 263.441C306.978 264.543 306.99 265.487 307.362 266.28C307.74 267.084 308.526 267.812 309.786 268.394C312.321 269.565 316.598 270.063 322.521 269.517C334.339 268.427 352.454 263.209 375.599 251.436C398.739 239.666 414.495 227.684 424.253 218.193C428.831 213.741 434.368 208.444 436.637 202.26C436.833 201.726 437.172 200.875 436.92 200.301C436.594 199.558 435.463 199.004 434.818 198.613C431.007 196.305 422.67 192.849 412.489 190.258ZM239.031 271.097C253.403 277.874 265.688 286.368 271.556 290.684C273.679 292.246 273.471 295.361 271.177 296.647C261.571 302.03 235.86 315.242 206.686 320.282C177.266 325.364 142.854 322.371 129.965 320.929C127.163 320.615 125.78 317.493 127.47 315.223C132.113 308.988 141.633 296.924 153.512 285.781C165.376 274.651 179.663 264.372 193.84 261.813C208.153 259.229 224.678 264.329 239.031 271.097ZM238.605 272.002C224.297 265.255 208.011 260.271 194.018 262.797C180.138 265.303 166.03 275.409 154.197 286.51C142.378 297.597 132.898 309.609 128.272 315.821C127.049 317.463 128.031 319.706 130.076 319.935C142.952 321.376 177.244 324.353 206.516 319.296C235.524 314.285 261.119 301.138 270.688 295.775C272.354 294.841 272.496 292.617 270.963 291.49C265.121 287.192 252.894 278.74 238.605 272.002Z" fill="#8EC160"/>
<path fill-rule="evenodd" clip-rule="evenodd" d="M358.886 465.464C251.893 511.285 120.061 456.515 81.2161 347.217C42.3433 237.842 114.729 119.387 225.435 87.3129C333.232 56.0819 457.145 123.141 484.029 229.738C510.913 336.335 452.819 425.235 358.886 465.464ZM229.69 98.6015C325.277 68.3191 443.346 121.592 473.665 230.713C501.008 329.125 438.271 418.851 367.216 447.664C358.486 402.272 339.06 360.41 307.823 325.93C307.949 313.518 312.446 290.006 322.871 265.1C345.711 262.722 366.796 252.105 389.772 238.589C417.75 222.132 440.353 197.217 442.21 193.086C442.917 191.513 443.181 189.934 442.978 188.354C442.789 186.88 440.265 184.369 439.224 183.294C424.815 173.175 385.5 164.5 355.5 179C318.575 196.847 302.202 230.42 297.022 251.765C296.821 253.534 299.462 258.408 300.544 259.797C303.235 263.251 308.176 263.713 312.225 263.665C313.248 263.653 314.271 263.625 315.294 263.582C308.734 278.667 303.332 294.185 298.536 307.962C297.57 310.738 297.628 312.444 296.706 315.061C285.06 305.653 272.775 297.632 260.509 291.203C264.207 288.383 266.439 286.203 269.134 282.619C269.433 282.222 269.616 281.735 269.619 281.235C269.622 280.617 269.355 280.088 268.965 279.63C250.748 261.321 226.757 245.031 196.705 245.238C162.58 245.475 135.524 268.56 120.878 284.876C118.895 287.073 118.007 292.278 120.878 294.992C123.592 297.558 127.41 298.354 130.443 294.992C149.395 273.983 168.258 253.072 203.561 255.548C226.206 257.136 242.44 267.399 256.336 280.923C254.49 283.34 252.288 285.5 249.768 287.43C218.598 273.213 188.689 269.741 170.991 280.461C169.035 281.402 167.954 284.177 168.622 285.912C169.319 287.722 171.494 288.637 173.813 288.86C175.314 289.004 177.161 287.958 179.464 286.654C182.407 284.988 186.094 282.901 190.749 282.341C206.84 280.128 223.828 284.671 241.982 292.708C223.736 302.217 195.87 303.124 164.164 303.363C150.283 303.393 138.582 303.143 128.832 302.935C111.427 302.564 100.243 302.325 93.9846 304.046C91.8563 304.608 90.7791 306.926 90.7353 309.357C90.6786 312.504 93.2298 315.056 95.9105 315.537C102.5 316.72 109.658 316.639 116.755 316.72C169.417 317.401 223.281 316.031 251.954 297.564C258.012 300.78 263.052 303.47 269.012 307.589C307.987 335.884 334.171 383.92 342.812 429.513C344.639 439.154 345.506 449.482 345.354 458.222C262.302 498.286 128.798 449.74 90.7675 345.314C52.6314 240.598 122.504 129.656 229.69 98.6015ZM312.193 254.036C314.762 254.004 317.291 253.902 319.789 253.731C331.666 228.973 347.127 206.764 368.763 197.294C379.372 192.65 393.384 196.065 403.641 200.419C406.107 201.465 407.258 204.312 406.21 206.778C405.133 209.314 400.883 212.567 398.473 211.12C390.654 205.381 382.559 201.076 372.849 203.258C352.957 209.908 339.736 228.357 328.347 252.11C347.197 249.827 362.711 244.314 383.05 232.905C411.281 217.07 424.719 201.308 430 188.354C409.917 177.216 389.026 172.523 360.886 185.068C330.018 198.828 314.1 230.548 309.56 245.665C308.89 247.739 307.684 251.712 309.957 253.316C310.437 253.655 311.147 253.93 312.193 254.036Z" fill="#183F18"/>
</svg>
