<svg width="560" height="560" viewBox="0 0 560 560" fill="none" xmlns="http://www.w3.org/2000/svg">
<path d="M497.966 284.439C495.783 405.124 383.727 493.214 265.142 487.758C151.306 478.73 65.4687 397.644 62.0906 285.884C58.4181 164.383 166.94 67.4961 288.41 72.1617C404.809 76.6325 500.072 167.976 497.966 284.439Z" fill="#F5FDE8"/>
<path d="M306.954 263.256C303.122 262.449 330.715 199.81 368.057 188.576C396.086 180.144 435.735 196.359 437.378 200.1C439.021 203.842 422.183 228.301 375.826 251.882C329.469 275.462 303.115 272.864 306.954 263.256Z" fill="#BBD491"/>
<path d="M127.871 315.522C137.14 303.075 165.872 267.37 193.929 262.305C222.235 257.195 259.55 282.473 271.259 291.087C273.088 292.432 272.912 295.101 270.932 296.211C261.345 301.584 235.692 314.763 206.601 319.789C177.255 324.859 142.903 321.873 130.021 320.432C127.597 320.161 126.415 317.478 127.871 315.522Z" fill="#BBD491"/>
<path fill-rule="evenodd" clip-rule="evenodd" d="M358.886 465.464C251.893 511.285 120.061 456.515 81.2161 347.217C42.3433 237.841 114.729 119.387 225.435 87.3128C333.232 56.0818 457.145 123.141 484.029 229.738C510.913 336.335 452.819 425.235 358.886 465.464ZM227.69 95.6014C323.277 65.319 445.346 122.592 475.665 231.713C503.008 330.125 435.271 420.851 364.216 449.664C355.486 404.271 337.06 360.41 305.823 325.93C305.949 313.518 311.446 288.006 321.871 263.1C344.711 260.722 367.796 251.104 390.772 237.589C418.75 221.131 439.353 198.217 441.21 194.086C441.917 192.513 442.181 190.934 441.978 189.354C441.789 187.879 441.265 186.369 440.224 185.294C431.157 176.949 380.048 167.013 349.297 184.771C322.841 200.047 307.324 227.092 299.022 254.765C298.821 256.534 299.462 258.408 300.544 259.797C303.235 263.251 308.176 263.713 312.225 263.665C313.248 263.653 314.271 263.625 315.294 263.582C308.734 278.667 303.332 294.185 298.536 307.961C297.57 310.738 296.628 313.444 295.706 316.061C284.06 306.653 271.775 298.631 259.509 292.203C263.207 289.383 266.439 286.203 269.134 282.619C269.433 282.222 269.616 281.734 269.619 281.235C269.622 280.617 269.355 280.088 268.965 279.63C250.748 261.321 228.757 248.03 198.705 248.238C164.58 248.474 136.524 273.56 121.878 289.876C119.895 292.072 119.924 294.721 122.063 296.769C124.007 298.63 127.084 298.57 128.953 296.642C129.45 296.092 129.946 295.542 130.443 294.992C149.395 273.983 168.258 253.072 203.561 255.548C226.206 257.136 242.44 267.399 256.336 280.923C254.49 283.34 252.288 285.499 249.768 287.429C218.598 273.213 188.689 269.74 170.991 280.461C169.035 281.402 167.954 284.177 168.622 285.912C169.319 287.721 171.494 288.637 173.813 288.86C175.314 289.004 177.161 287.958 179.464 286.654C182.407 284.988 186.094 282.901 190.749 282.341C206.84 280.128 224.828 283.671 242.982 291.708C224.736 301.217 195.87 303.124 164.164 303.363C150.283 303.392 138.582 303.143 128.832 302.935H128.832C111.427 302.564 100.243 302.325 93.9846 304.046C91.8563 304.608 90.8057 306.471 90.7353 308.357C90.6469 310.723 92.1015 313.527 94.9105 313.537C101.68 313.56 108.658 313.639 115.755 313.72C165.596 314.285 221.381 314.919 252.954 296.564C259.012 299.78 265.052 303.47 271.012 307.589C309.987 335.884 336.171 383.92 344.812 429.513C346.639 439.154 347.506 448.482 347.354 457.221C264.302 497.286 125.798 448.74 87.7675 344.314C49.6314 239.598 120.504 126.656 227.69 95.6014ZM312.193 254.036C314.762 254.003 317.291 253.902 319.789 253.731C331.666 228.973 347.127 206.764 368.763 197.294C379.372 192.65 393.384 196.065 403.641 200.418C406.107 201.465 407.258 204.312 406.21 206.778C405.133 209.314 401.883 210.567 399.473 209.12C391.654 203.381 383.559 199.076 373.849 201.258C353.957 207.908 337.736 229.357 326.347 253.11C345.197 250.827 362.711 244.314 383.05 232.905C411.281 217.07 426.473 204.421 431.754 191.466C408.66 177.755 385.086 175.915 358.886 187.067C331.847 198.576 318.471 225.885 309.56 245.665C308.89 247.739 307.684 251.711 309.957 253.316C310.437 253.655 311.147 253.93 312.193 254.036Z" fill="#183F18"/>
</svg>
